# xmcd
#
# Track frame offsets:
#	150
#	62441
#	129142
#	158098
#	205502
#
# Disc length: 3572 seconds
#
# Revision: 0
# Processed by: cddbd v1.5.2PL0 Copyright (c) Steve Scherf et al.
# Submitted via: SynApp - FreeCDDB Version: 2.5
#
DISCID=310df205
DTITLE=Clapton, Eric - Live at Fillmore CD 1
DYEAR=2000
DGENRE=Blues
TTITLE0=a
TTITLE1=a
TTITLE2=a
TTITLE3=a
TTITLE4=a
EXTD=
EXTT0=
EXTT1=
EXTT2=
EXTT3=
EXTT4=
PLAYORDER=
